<svg id="colourful" xmlns="http://www.w3.org/2000/svg" viewBox="0 0 400 400"><defs><style>.cls-1{fill:#ff4c4c;}.cls-2{fill:#34bf49;}.cls-3{fill:#0099e5;}</style></defs><path class="cls-1" d="M200,0,86.78,113.22l28.3,28.31h0l56.6,56.61h0l28.3,28.3,28.3-28.3,56.61-56.61,28.31-28.31Zm0,169.83-56.61-56.6L200,56.62l56.61,56.61Z"/><path class="cls-2" d="M114.29,173.56l-28.58,28.3L28.57,258.47,0,286.78,114.29,400l28.57-28.31L200,315.08V258.47Zm0,169.83L57.14,286.78l57.15-56.61,57.14,56.61Z"/><path class="cls-3" d="M285.71,173.88l-28.57,28.27L200,258.68v56.53L285.71,400l28.58-28.26,57.14-56.53L400,286.94Zm0,169.59-57.14-56.53,57.14-56.53,57.15,56.53Z"/></svg>