<svg id="white" xmlns="http://www.w3.org/2000/svg" viewBox="0 0 1960 400">
    <defs>
        <style>.cls-1{fill:#fff;}</style>
    </defs>
    <path class="cls-1" d="M160,0H0V400H80V240h80c43.89,0,80-36.11,80-80V80C240,36.11,203.89,0,160,0ZM80,160V80h80v80Z"/>
    <rect class="cls-1" x="280" y="160" width="80" height="240"/>
    <polygon class="cls-1" points="640 160 640 400 560 400 560 399.77 559.69 400 480 293.23 480 400 400 400 400 160 480 160 480 160.23 480.31 160 560 266.77 560 160 640 160"/>
    <path class="cls-1" d="M920,80V400H840V240H760V400H680V80h80v80h80V80H680c0-43.88,36.11-80,80-80h80C883.89,0,920,36.11,920,80Z"/>
    <path class="cls-1" d="M1120,160H960V400h160c43.89,0,80-36.11,80-80V240C1200,196.11,1163.89,160,1120,160Zm-80,160V240h80v80Z"/>
    <polygon class="cls-1"
             points="1560 160 1560 400 1480 400 1480 277.25 1440.15 320.1 1440 319.96 1440 320 1360 320 1360 319.97 1359.89 320.07 1320 277.17 1320 400 1240 400 1240 160 1320 160 1320 160.26 1320.28 160 1394.67 240 1400.03 245.76 1405.39 240 1479.78 160 1480 160.2 1480 160 1560 160"/>
    <polygon class="cls-1" points="1405.39 240 1400.03 245.76 1394.67 240 1405.39 240"/>
    <rect class="cls-1" x="1600" y="160" width="80" height="240"/>
    <polygon class="cls-1"
             points="1960 160 1960 400 1880 400 1880 399.77 1879.69 400 1800 293.23 1800 400 1720 400 1720 160 1800 160 1800 160.23 1800.31 160 1880 266.77 1880 160 1960 160"/>
</svg>